<?xml version="1.0" encoding="UTF-8"?>
<svg width="512" height="512" viewBox="0 0 512 512" xmlns="http://www.w3.org/2000/svg">
    <path d="M256 128C181.9 128 122 187.9 122 262C122 336.1 181.9 396 256 396C330.1 396 390 336.1 390 262C390 187.9 330.1 128 256 128ZM256 366C198.1 366 152 319.9 152 262C152 204.1 198.1 158 256 158C313.9 158 360 204.1 360 262C360 319.9 313.9 366 256 366Z"/>
    <path d="M256 188C214.6 188 181 221.6 181 263C181 304.4 214.6 338 256 338C297.4 338 331 304.4 331 263C331 221.6 297.4 188 256 188ZM256 308C231.2 308 211 287.8 211 263C211 238.2 231.2 218 256 218C280.8 218 301 238.2 301 263C301 287.8 280.8 308 256 308Z"/>
    <circle cx="256" cy="263" r="30"/>
</svg>
